<?xml version="1.0" encoding="utf-8"?>
<!-- Generator: Adobe Illustrator 16.0.0, SVG Export Plug-In . SVG Version: 6.00 Build 0)  -->
<!DOCTYPE svg PUBLIC "-//W3C//DTD SVG 1.1//EN" "http://www.w3.org/Graphics/SVG/1.1/DTD/svg11.dtd">
<svg version="1.1" id="Layer_1" xmlns="http://www.w3.org/2000/svg" xmlns:xlink="http://www.w3.org/1999/xlink" x="0px" y="0px"
	 width="32px" height="13px" viewBox="0 0 32 13" enable-background="new 0 0 32 13" xml:space="preserve">
	<path fill="#D22C2F" d="M13.0546,10.3548C13.0087,10.3866 15.8175,11.9658 15.9227,11.9654C16.0279,11.9649 18.9846,10.3712 18.9296,10.3468C18.8747,10.3226 17.5608,10.3271 17.4854,10.3485C17.41,10.3698 16.101,11.1937 15.9226,11.196C15.7443,11.1982 14.3593,10.3598 14.2574,10.347C14.1555,10.3341 13.1005,10.3229 13.0545,10.3548Z"/>
	<path fill="#FFFFFF" d="M21.3104,10.5129C21.3198,10.5717 21.7855,10.5255 21.9736,10.5162C22.1617,10.5069 27.4239,9.5082 27.6955,9.3389C27.9671,9.1696 31.8687,4.4358 31.9312,4.3512C31.9937,4.2666 32.0203,4.2409 31.9799,4.2047C31.9396,4.1685 30.807,4.2288 30.7549,4.192C30.7027,4.1552 31.3838,3.0248 31.4132,2.9185C31.4426,2.8123 31.3864,2.6177 31.297,2.6267C31.2077,2.6357 21.7297,3.1726 21.5788,3.1841C21.6536,2.947 21.669,2.641 21.4994,2.494C21.2617,2.2882 20.8583,2.2062 20.5312,2.0696C20.1361,1.9045 19.7195,1.7639 19.3307,1.592C18.2111,1.097 16.3561,-0.0003 16.0776,0.0002C15.7992,0.0007 14.3643,0.7296 13.1876,1.312C12.5887,1.6084 11.3042,2.093 10.7333,2.4145C10.5558,2.5145 10.3501,2.6312 10.3073,2.7859C10.2822,2.8766 10.4035,2.9581 10.468,3.0149C10.5325,3.0717 10.6651,3.1941 10.6651,3.1941C10.6651,3.1941 1.146,2.6881 0.9289,2.7125C0.7118,2.7369 0.5285,2.8108 0.587,2.9451C0.6455,3.0794 1.2966,4.0871 1.3228,4.139C1.349,4.1908 1.3117,4.193 1.2163,4.202C1.1209,4.211 0.3377,4.1761 0.0061,4.2318C-0.0821,4.3026 0.7818,5.7223 1.3736,6.3896C2.3245,7.4614 2.9199,8.1805 3.9243,9.2057C4.0122,9.2954 4.2489,9.4698 4.4181,9.5019C6.3885,9.8751 9.4466,10.4943 10.2686,10.5329C10.4188,10.5399 10.5717,10.5627 10.559,10.4599C5.2274,9.4905 4.4543,9.3098 4.2789,9.2146C4.1751,9.1583 2.9885,7.8808 1.9176,6.6622C1.0781,5.7071 0.29,4.4229 0.3111,4.3644C0.3322,4.3059 1.3655,4.3355 1.6793,4.3242C1.6234,4.1628 1.4896,4.042 1.3181,3.8002C1.1466,3.5584 0.7933,2.978 0.9065,2.8787C1.0197,2.7794 10.66,3.3539 10.8129,3.3522C10.8584,3.3517 10.8537,3.4001 10.9652,3.4673C11.2182,3.4646 12.1284,3.4729 12.1201,3.4687C11.9912,3.4042 11.3817,3.1463 11.0819,2.9981C10.9708,2.9432 10.7885,2.8619 10.8198,2.7969C11.0704,2.2758 12.1352,2.2011 12.7471,1.9104C13.8718,1.3761 16.0775,0.2655 16.0775,0.2655C16.0775,0.2655 18.2566,1.4988 19.4468,2.0164C19.9635,2.2412 20.6869,2.2749 21.0733,2.6001C21.192,2.7 21.2921,2.8505 21.2282,2.9715C21.1113,3.193 20.557,3.4119 20.3907,3.4491C20.2245,3.4863 21.1054,3.4653 21.3976,3.4657C21.4481,3.4657 21.466,3.4006 21.504,3.3556C21.6071,3.3481 31.144,2.7472 31.2289,2.7543C31.3137,2.7615 30.6558,3.8068 30.5486,4.0181C30.4414,4.2294 30.4222,4.3541 30.609,4.3568C30.7959,4.3596 31.3526,4.3528 31.5636,4.3454C31.7746,4.3379 27.6933,9.0691 27.4762,9.1487C27.259,9.2284 21.3012,10.454 21.3106,10.5127ZM10.5493,10.4863C10.5493,10.4863 15.7982,12.9961 16,13.0001C16.2018,13.0041 21.3733,10.5261 21.3733,10.5261C21.3733,10.5261 16.2008,12.6937 15.9887,12.696C15.7766,12.6982 10.5493,10.4863 10.5493,10.4863Z"/>
	<path fill="#FCFCFC" d="M21.3335,9.334C21.3335,9.334 23.4513,9.3317 23.6957,9.3075C23.9403,9.2832 24.3191,9.2269 24.4315,9.1483C24.544,9.0697 27.7619,4.585 27.7619,4.585C27.7619,4.585 29.0575,4.2943 29.1948,4.2401C29.3321,4.1859 29.9882,3.4236 29.9306,3.3646C29.873,3.3056 21.2467,3.8102 21.1397,3.8687C21.875,3.8873 25.1964,3.8687 25.1964,3.8687C25.1964,3.8687 27.3045,3.7752 27.4038,3.8488C27.503,3.9223 27.2806,4.1405 27.2198,4.2401C27.159,4.3397 24.0496,8.768 23.9667,8.8299C23.8838,8.8918 21.3333,9.334 21.3333,9.334Z"/>
	<path fill="#D62223" d="M4.7148,8.6052C4.8049,8.6608 6.4075,8.886 6.5122,8.8346C6.617,8.7833 5.7971,7.8272 5.733,7.7983C5.669,7.7694 3.8899,7.533 3.8307,7.578C3.7715,7.623 4.6247,8.5496 4.7148,8.6052Z"/>
	<path fill="#D63237" d="M5.5055,7.4628C5.5817,7.4008 4.8352,6.4733 4.756,6.4392C4.6767,6.4051 2.7413,6.1258 2.6826,6.1768C2.624,6.2278 3.4861,7.1766 3.5577,7.2257C3.6294,7.2748 5.4292,7.5249 5.5055,7.4629Z"/>
	<path fill="#E7474A" d="M1.5554,4.9346C1.5245,4.9775 2.3433,5.7624 2.4461,5.8366C2.5488,5.9109 4.4265,6.1795 4.5146,6.1191C4.6027,6.0587 3.8665,5.1865 3.7628,5.1219C3.6591,5.0574 1.5863,4.8917 1.5554,4.9346Z"/>
	<path fill="#D62223" d="M27.2515,8.604C27.1614,8.6596 25.5588,8.8848 25.4541,8.8334C25.3494,8.7821 26.1693,7.8261 26.2333,7.7971C26.2974,7.7682 28.0764,7.5318 28.1356,7.5768C28.1948,7.6219 27.3417,8.5484 27.2515,8.604Z"/>
	<path fill="#D63237" d="M26.4611,7.4617C26.3849,7.3996 27.1313,6.4721 27.2106,6.438C27.2898,6.4039 29.2252,6.1246 29.2839,6.1756C29.3425,6.2266 28.4805,7.1754 28.4088,7.2245C28.3372,7.2736 26.5374,7.5237 26.4611,7.4617Z"/>
	<path fill="#E7474A" d="M30.4096,4.9334C30.4405,4.9763 29.6217,5.7612 29.5189,5.8355C29.4162,5.9097 27.5385,6.1783 27.4504,6.1179C27.3622,6.0575 28.0985,5.1853 28.2022,5.1207C28.3059,5.0562 30.3787,4.8905 30.4096,4.9334Z"/>
	<path fill="#DB3A33" d="M12.7108,2.9154C12.7914,2.9888 13.7691,2.9541 13.9488,2.9332C14.1451,2.9103 15.768,1.8041 16.0389,1.7907C16.3098,1.7774 17.9402,2.8974 18.0591,2.9354C18.1782,2.9734 19.2519,2.9584 19.2945,2.9154C19.3371,2.8725 16.3152,0.9894 16.0454,0.9816C15.7757,0.9738 12.63,2.8419 12.7106,2.9153Z"/>
	<path fill="#6B1E24" d="M18.4447,2.3003L20.0032,2.2738L16.0777,0.262L11.8839,2.3346L13.5605,2.3612L16.1164,0.9816Z"/>
	<path fill="#FFFFFF" d="M9.9975,9.7895C9.9396,9.8869 10.8517,10.2682 11.0044,10.2936C11.1571,10.319 12.4081,10.3697 12.4373,10.2952C12.4665,10.2207 10.0555,9.6921 9.9976,9.7895Z"/>
	<path fill="#FFFFFF" d="M21.9663,9.7513C22.0242,9.8487 21.1121,10.23 20.9594,10.2554C20.8067,10.2807 19.5558,10.3315 19.5265,10.257C19.4973,10.1825 21.9084,9.6539 21.9663,9.7513Z"/>
	<path fill="#CE312D" d="M11.6384,9.7901L12.8466,9.7901L12.9301,9.483L12.0939,9.483L12.3355,8.5948L11.9635,8.5948ZM13.2566,9.7901L14.6055,9.7901L14.6836,9.5028L13.7067,9.5028L13.7588,9.3113L14.6636,9.3113L14.731,9.0637L13.8261,9.0637L13.8782,8.8721L14.8333,8.8721L14.9088,8.5948L13.5817,8.5948ZM15.6172,9.7901L16.0763,9.7901L17.0532,8.5948L16.646,8.5948L15.9303,9.483L15.6976,8.5948L15.2904,8.5948ZM17.1148,9.7901L18.4636,9.7901L18.5418,9.5028L17.5649,9.5028L17.617,9.3113L18.5218,9.3113L18.5891,9.0637L17.6843,9.0637L17.7364,8.8721L18.6915,8.8721L18.7669,8.5948L17.4398,8.5948ZM18.9408,9.7901L20.1489,9.7901L20.2324,9.483L19.3963,9.483L19.6379,8.5948L19.2659,8.5948Z"/>
	<path fill="#FFFFFF" d="M15.2465,3.7748L13.1835,8.2843L11.056,8.2843L12.4078,5.3294C11.9935,5.4826 11.6028,5.6066 11.2359,5.7014C10.8724,5.7961 10.4281,5.8869 9.903,5.9736L10.3652,4.9634C11.143,4.8283 11.7732,4.666 12.2558,4.4765C12.7384,4.2869 13.1552,4.053 13.5063,3.7748ZM15.2443,7.2893L17.4062,7.135C17.3829,7.3064 17.4205,7.4274 17.519,7.498C17.6175,7.5685 17.7615,7.6038 17.9508,7.6038C18.2882,7.6038 18.5972,7.504 18.8778,7.3044C19.0829,7.1572 19.3287,6.8457 19.6152,6.3698C19.2947,6.521 18.9858,6.6319 18.6884,6.7025C18.3911,6.7731 18.0685,6.8084 17.7208,6.8084C17.0427,6.8084 16.534,6.6672 16.195,6.385C15.8594,6.1027 15.7903,5.7458 15.9877,5.3143C16.1224,5.0199 16.3638,4.7517 16.712,4.5098C17.0603,4.2678 17.4708,4.0853 17.9436,3.9623C18.4173,3.8373 18.9692,3.7748 19.5992,3.7748C20.3565,3.7748 20.9291,3.8514 21.3168,4.0047C21.7055,4.1559 21.9597,4.3978 22.0795,4.7305C22.2036,5.0612 22.1411,5.4987 21.8921,6.0432C21.5259,6.8436 20.97,7.4304 20.2245,7.8034C19.4798,8.1744 18.598,8.3599 17.5791,8.3599C16.9766,8.3599 16.52,8.3196 16.2092,8.2389C15.8993,8.1562 15.6651,8.0363 15.5064,7.879C15.3477,7.7217 15.2603,7.5251 15.2443,7.2892ZM20.0221,5.3112C20.1319,5.0713 20.1144,4.8837 19.9696,4.7487C19.8258,4.6115 19.6059,4.543 19.3098,4.543C19.031,4.543 18.7705,4.6045 18.5283,4.7275C18.2896,4.8505 18.114,5.035 18.0014,5.281C17.888,5.529 17.8959,5.7185 18.0253,5.8496C18.1581,5.9806 18.3674,6.0462 18.6531,6.0462C18.9492,6.0462 19.2244,5.9826 19.4787,5.8556C19.7331,5.7286 19.9142,5.5471 20.0221,5.3112Z"/>
	<path fill="#FFFFFF" d="M10.6711,9.3411C10.6711,9.3411 8.5533,9.3388 8.3089,9.3146C8.0644,9.2903 7.6856,9.234 7.5731,9.1554C7.4606,9.0768 4.2427,4.5921 4.2427,4.5921C4.2427,4.5921 2.9471,4.3014 2.8098,4.2472C2.6725,4.193 2.0164,3.4307 2.074,3.3717C2.1316,3.3127 10.7579,3.8173 10.8649,3.8758C10.1296,3.8944 6.8082,3.8758 6.8082,3.8758C6.8082,3.8758 4.7001,3.7823 4.6009,3.8559C4.5016,3.9294 4.724,4.1476 4.7848,4.2472C4.8456,4.3468 7.955,8.7751 8.0379,8.837C8.1207,8.8989 10.6713,9.3411 10.6713,9.3411Z"/>
</svg>
